<svg width="23" height="23" viewBox="0 0 23 23" fill="none" xmlns="http://www.w3.org/2000/svg">
<path d="M14.4111 22.4297H8.41113C2.98113 22.4297 0.661133 20.1097 0.661133 14.6797V8.67972C0.661133 3.24972 2.98113 0.929718 8.41113 0.929718H13.4111C13.8211 0.929718 14.1611 1.26972 14.1611 1.67972C14.1611 2.08972 13.8211 2.42972 13.4111 2.42972H8.41113C3.80113 2.42972 2.16113 4.06972 2.16113 8.67972V14.6797C2.16113 19.2897 3.80113 20.9297 8.41113 20.9297H14.4111C19.0211 20.9297 20.6611 19.2897 20.6611 14.6797V9.67972C20.6611 9.26972 21.0011 8.92972 21.4111 8.92972C21.8211 8.92972 22.1611 9.26972 22.1611 9.67972V14.6797C22.1611 20.1097 19.8411 22.4297 14.4111 22.4297Z" fill="white"/>
</svg>
